<svg width="48" height="36" viewBox="0 0 48 36" fill="none" xmlns="http://www.w3.org/2000/svg">
<path fill-rule="evenodd" clip-rule="evenodd" d="M0.787885 16.2658C0.787886 14.5243 2.4138 13.1126 4.41958 13.1126L44.3683 13.1126C46.3741 13.1126 48 14.5243 48 16.2658C48 18.0072 46.3741 19.4189 44.3683 19.4189L4.41958 19.4189C2.4138 19.4189 0.787885 18.0072 0.787885 16.2658ZM38.9207 9.95951L44.3683 9.95951C44.3683 4.73509 39.4906 0.500118 33.4732 0.500117L15.3147 0.500115C9.29732 0.500115 4.41959 4.73509 4.41958 9.95951L38.9207 9.95951ZM40.7366 22.572L44.3683 22.572L44.3683 28.8783C44.3683 32.3613 41.1165 35.1846 37.1049 35.1846L11.683 35.1846C7.67141 35.1846 4.41958 32.3613 4.41958 28.8783L4.41958 22.572L40.7366 22.572ZM11.683 27.3017C11.683 26.4312 10.8698 25.7252 9.86713 25.7252C8.86442 25.7252 8.05128 26.4312 8.05128 27.3017C8.05128 28.1723 8.86442 28.8783 9.86713 28.8783C10.8698 28.8783 11.683 28.1723 11.683 27.3017ZM18.9464 30.4549C18.9464 29.5843 18.1333 28.8783 17.1305 28.8783C16.1278 28.8783 15.3147 29.5843 15.3147 30.4549C15.3147 31.3254 16.1278 32.0314 17.1305 32.0314C18.1333 32.0314 18.9464 31.3254 18.9464 30.4549ZM26.2098 27.3017C26.2098 26.4312 25.3967 25.7252 24.3939 25.7252C23.3912 25.7252 22.5781 26.4312 22.5781 27.3017C22.5781 28.1723 23.3912 28.8783 24.3939 28.8783C25.3967 28.8783 26.2098 28.1723 26.2098 27.3017ZM33.4732 30.4549C33.4732 29.5843 32.6601 28.8783 31.6573 28.8783C30.6546 28.8783 29.8415 29.5843 29.8415 30.4549C29.8415 31.3255 30.6546 32.0314 31.6573 32.0314C32.6601 32.0314 33.4732 31.3255 33.4732 30.4549ZM40.7366 27.3017C40.7366 26.4312 39.9235 25.7252 38.9207 25.7252C37.918 25.7252 37.1049 26.4312 37.1049 27.3017C37.1049 28.1723 37.918 28.8783 38.9207 28.8783C39.9235 28.8783 40.7366 28.1723 40.7366 27.3017Z" fill="#FD0B7D"/>
</svg>
