<svg width="34" height="35" viewBox="0 0 34 35" fill="none" xmlns="http://www.w3.org/2000/svg">
<path fill-rule="evenodd" clip-rule="evenodd" d="M9.93187 19.8133L14.8789 14.4592L2.61622 1.18758C-0.110761 4.13893 -0.110761 8.93488 2.61622 11.8862L9.93187 19.8133ZM21.7925 16.3795C24.4583 17.7322 28.2254 16.7768 31.0048 13.7687C34.3523 10.1457 34.9904 4.97137 32.4295 2.19974C29.8598 -0.571877 25.0701 0.118663 21.7313 3.74164C18.9519 6.74974 18.0779 10.8268 19.319 13.7119C15.4295 17.9119 2.24913 32.1768 2.24913 32.1768L4.72264 34.8538L16.7493 21.8376L28.776 34.8538L31.2495 32.1768L19.2228 19.1606L21.7925 16.3795Z" fill="#FD0B7D"/>
</svg>
